<svg width="165" height="120" viewBox="0 0 165 120" fill="none" xmlns="http://www.w3.org/2000/svg">
<path fill-rule="evenodd" clip-rule="evenodd" d="M99.6037 119.475C100.61 119.815 101.688 120 102.809 120H155C160.523 120 165 115.523 165 110V10C165 4.47715 160.523 0 155 0H102.809C101.688 0 100.61 0.184512 99.6037 0.524828V119.475Z" fill="#E65656"/>
<path fill-rule="evenodd" clip-rule="evenodd" d="M10 0C4.47715 0 0 4.47715 0 10V110C0 115.523 4.47715 120 10 120H63.1406C63.9163 120 64.6714 119.912 65.3963 119.745V0.255449C64.6714 0.0883187 63.9163 0 63.1406 0H10Z" fill="#2E4DBD"/>
<rect x="52.3171" width="58.3537" height="120" fill="white"/>
</svg>
