<svg width="374" height="191" viewBox="0 0 374 191" fill="none" xmlns="http://www.w3.org/2000/svg">
<path d="M125 50L167 3L257.5 127C231 94.1667 183.5 28.5 176 34C168.5 39.5 205.5 93 196 86C186.5 79 160.799 45.0622 157 39C157 39 141.5 50 140 49C136.8 48.2 146.333 37 149.5 31L125 50Z" fill="white" stroke="white" stroke-width="3" stroke-linecap="round"/>
<path d="M108 43L55.0185 111.967C69.6479 94.7934 99.3762 70.619 102.5 69C106.048 67.1612 130 97.5 135.5 97.5C141 97.5 124.804 79 130.804 78.5C136.804 78 170.5 113.5 170.5 113.5L108 43Z" fill="white"/>
<path d="M55.0185 111.967L108 43L170.5 113.5C170.5 113.5 136.804 78 130.804 78.5C124.804 79 141 97.5 135.5 97.5C130 97.5 106.048 67.1612 102.5 69C99.3762 70.619 69.6479 94.7934 55.0185 111.967ZM55.0185 111.967C53.0327 114.298 51.3251 116.501 50 118.5L55.0185 111.967Z" stroke="white" stroke-width="3" stroke-linecap="round"/>
<g filter="url(#filter0_i_4_73)">
<path d="M153.98 155.4L155.78 150.6H174.38L176.18 155.4H153.98ZM164.96 135.48L157.88 152.16L157.4 153.24L151.16 168H145.46L164.96 123.9L184.46 168H178.76L172.64 153.6L172.16 152.4L164.96 135.48ZM218.37 126H223.47V170.1L191.67 136.74V168H186.57V123.9L218.37 157.26V126ZM225.893 130.8V126H252.593V130.8H241.793V168H236.693V130.8H225.893ZM254.984 126H260.084V168H254.984V126ZM269.691 147C269.691 150.16 270.371 152.98 271.731 155.46C273.131 157.94 275.031 159.9 277.431 161.34C279.831 162.78 282.551 163.5 285.591 163.5C288.671 163.5 291.391 162.78 293.751 161.34C296.151 159.9 298.031 157.94 299.391 155.46C300.791 152.98 301.491 150.16 301.491 147C301.491 143.84 300.791 141.02 299.391 138.54C298.031 136.06 296.151 134.1 293.751 132.66C291.391 131.22 288.671 130.5 285.591 130.5C282.551 130.5 279.831 131.22 277.431 132.66C275.031 134.1 273.131 136.06 271.731 138.54C270.371 141.02 269.691 143.84 269.691 147ZM264.291 147C264.291 143.92 264.811 141.08 265.851 138.48C266.931 135.84 268.431 133.56 270.351 131.64C272.271 129.68 274.531 128.16 277.131 127.08C279.731 125.96 282.551 125.4 285.591 125.4C288.671 125.4 291.491 125.96 294.051 127.08C296.651 128.16 298.911 129.68 300.831 131.64C302.751 133.56 304.231 135.84 305.271 138.48C306.351 141.08 306.891 143.92 306.891 147C306.891 150.04 306.351 152.88 305.271 155.52C304.231 158.16 302.751 160.46 300.831 162.42C298.911 164.34 296.651 165.86 294.051 166.98C291.491 168.06 288.671 168.6 285.591 168.6C282.551 168.6 279.731 168.06 277.131 166.98C274.531 165.86 272.271 164.34 270.351 162.42C268.431 160.46 266.931 158.16 265.851 155.52C264.811 152.88 264.291 150.04 264.291 147ZM284.631 150H291.231L309.231 168H302.631L284.631 150ZM310.793 126H315.893V154.2C315.893 157.08 316.673 159.4 318.233 161.16C319.793 162.92 322.073 163.8 325.073 163.8C328.073 163.8 330.353 162.92 331.913 161.16C333.473 159.4 334.253 157.08 334.253 154.2V126H339.353V154.2C339.353 156.28 339.013 158.2 338.333 159.96C337.693 161.72 336.733 163.24 335.453 164.52C334.213 165.8 332.713 166.8 330.953 167.52C329.193 168.24 327.233 168.6 325.073 168.6C322.913 168.6 320.953 168.24 319.193 167.52C317.433 166.8 315.913 165.8 314.633 164.52C313.393 163.24 312.433 161.72 311.753 159.96C311.113 158.2 310.793 156.28 310.793 154.2V126ZM348.472 168V163.2H369.652V168H348.472ZM348.472 130.8V126H369.652V130.8H348.472ZM348.472 147.6V142.8H368.452V147.6H348.472ZM345.652 126H350.752V168H345.652V126Z" fill="url(#paint0_linear_4_73)"/>
</g>
<path d="M16.6613 147C16.6613 150.16 17.3413 152.98 18.7013 155.46C20.1013 157.94 22.0013 159.9 24.4013 161.34C26.8013 162.78 29.5213 163.5 32.5613 163.5C35.6413 163.5 38.3613 162.78 40.7213 161.34C43.1213 159.9 45.0013 157.94 46.3613 155.46C47.7613 152.98 48.4613 150.16 48.4613 147C48.4613 143.84 47.7613 141.02 46.3613 138.54C45.0013 136.06 43.1213 134.1 40.7213 132.66C38.3613 131.22 35.6413 130.5 32.5613 130.5C29.5213 130.5 26.8013 131.22 24.4013 132.66C22.0013 134.1 20.1013 136.06 18.7013 138.54C17.3413 141.02 16.6613 143.84 16.6613 147ZM11.2613 147C11.2613 143.92 11.7813 141.08 12.8213 138.48C13.9013 135.84 15.4013 133.56 17.3213 131.64C19.2413 129.68 21.5013 128.16 24.1013 127.08C26.7013 125.96 29.5213 125.4 32.5613 125.4C35.6413 125.4 38.4613 125.96 41.0213 127.08C43.6213 128.16 45.8813 129.68 47.8013 131.64C49.7213 133.56 51.2013 135.84 52.2413 138.48C53.3213 141.08 53.8613 143.92 53.8613 147C53.8613 150.04 53.3213 152.88 52.2413 155.52C51.2013 158.16 49.7213 160.46 47.8013 162.42C45.8813 164.34 43.6213 165.86 41.0213 166.98C38.4613 168.06 35.6413 168.6 32.5613 168.6C29.5213 168.6 26.7013 168.06 24.1013 166.98C21.5013 165.86 19.2413 164.34 17.3213 162.42C15.4013 160.46 13.9013 158.16 12.8213 155.52C11.7813 152.88 11.2613 150.04 11.2613 147ZM31.6013 150H38.2013L56.2013 168H49.6013L31.6013 150ZM57.7637 126H62.8637V154.2C62.8637 157.08 63.6437 159.4 65.2037 161.16C66.7637 162.92 69.0437 163.8 72.0437 163.8C75.0437 163.8 77.3237 162.92 78.8837 161.16C80.4437 159.4 81.2237 157.08 81.2237 154.2V126H86.3237V154.2C86.3237 156.28 85.9837 158.2 85.3037 159.96C84.6637 161.72 83.7037 163.24 82.4237 164.52C81.1837 165.8 79.6837 166.8 77.9237 167.52C76.1637 168.24 74.2037 168.6 72.0437 168.6C69.8837 168.6 67.9237 168.24 66.1637 167.52C64.4037 166.8 62.8837 165.8 61.6037 164.52C60.3637 163.24 59.4037 161.72 58.7237 159.96C58.0837 158.2 57.7637 156.28 57.7637 154.2V126ZM96.6423 155.4L98.4423 150.6H117.042L118.842 155.4H96.6423ZM107.622 135.48L100.542 152.16L100.062 153.24L93.8223 168H88.1223L107.622 123.9L127.122 168H121.422L115.302 153.6L114.822 152.4L107.622 135.48ZM129.232 126H134.332V168H129.232V126Z" fill="white"/>
<defs>
<filter id="filter0_i_4_73" x="145.46" y="123.9" width="224.191" height="50.2" filterUnits="userSpaceOnUse" color-interpolation-filters="sRGB">
<feFlood flood-opacity="0" result="BackgroundImageFix"/>
<feBlend mode="normal" in="SourceGraphic" in2="BackgroundImageFix" result="shape"/>
<feColorMatrix in="SourceAlpha" type="matrix" values="0 0 0 0 0 0 0 0 0 0 0 0 0 0 0 0 0 0 127 0" result="hardAlpha"/>
<feOffset dy="4"/>
<feGaussianBlur stdDeviation="2"/>
<feComposite in2="hardAlpha" operator="arithmetic" k2="-1" k3="1"/>
<feColorMatrix type="matrix" values="0 0 0 0 0 0 0 0 0 0 0 0 0 0 0 0 0 0 0.25 0"/>
<feBlend mode="normal" in2="shape" result="effect1_innerShadow_4_73"/>
</filter>
<linearGradient id="paint0_linear_4_73" x1="259.029" y1="120.958" x2="259.317" y2="191.001" gradientUnits="userSpaceOnUse">
<stop stop-color="#E7B846"/>
<stop offset="0.213542" stop-color="#E4B543"/>
<stop offset="0.354167" stop-color="#FFEC7A"/>
<stop offset="0.484375" stop-color="#E7B846"/>
<stop offset="0.630208" stop-color="#CE9728"/>
<stop offset="0.822917" stop-color="#FEEB79"/>
<stop offset="0.989583" stop-color="#FFE173"/>
</linearGradient>
</defs>
</svg>
