<svg width="477" height="219" viewBox="0 0 477 219" fill="none" xmlns="http://www.w3.org/2000/svg">
<path d="M148.98 175C148.98 178.16 149.66 180.98 151.02 183.46C152.42 185.94 154.32 187.9 156.72 189.34C159.12 190.78 161.84 191.5 164.88 191.5C167.96 191.5 170.68 190.78 173.04 189.34C175.44 187.9 177.32 185.94 178.68 183.46C180.08 180.98 180.78 178.16 180.78 175C180.78 171.84 180.08 169.02 178.68 166.54C177.32 164.06 175.44 162.1 173.04 160.66C170.68 159.22 167.96 158.5 164.88 158.5C161.84 158.5 159.12 159.22 156.72 160.66C154.32 162.1 152.42 164.06 151.02 166.54C149.66 169.02 148.98 171.84 148.98 175ZM143.58 175C143.58 171.92 144.1 169.08 145.14 166.48C146.22 163.84 147.72 161.56 149.64 159.64C151.56 157.68 153.82 156.16 156.42 155.08C159.02 153.96 161.84 153.4 164.88 153.4C167.96 153.4 170.78 153.96 173.34 155.08C175.94 156.16 178.2 157.68 180.12 159.64C182.04 161.56 183.52 163.84 184.56 166.48C185.64 169.08 186.18 171.92 186.18 175C186.18 178.04 185.64 180.88 184.56 183.52C183.52 186.16 182.04 188.46 180.12 190.42C178.2 192.34 175.94 193.86 173.34 194.98C170.78 196.06 167.96 196.6 164.88 196.6C161.84 196.6 159.02 196.06 156.42 194.98C153.82 193.86 151.56 192.34 149.64 190.42C147.72 188.46 146.22 186.16 145.14 183.52C144.1 180.88 143.58 178.04 143.58 175ZM163.92 178H170.52L188.52 196H181.92L163.92 178ZM193.082 154H198.182V182.2C198.182 185.08 198.962 187.4 200.522 189.16C202.082 190.92 204.362 191.8 207.362 191.8C210.362 191.8 212.642 190.92 214.202 189.16C215.762 187.4 216.542 185.08 216.542 182.2V154H221.642V182.2C221.642 184.28 221.302 186.2 220.622 187.96C219.982 189.72 219.022 191.24 217.742 192.52C216.502 193.8 215.002 194.8 213.242 195.52C211.482 196.24 209.522 196.6 207.362 196.6C205.202 196.6 203.242 196.24 201.482 195.52C199.722 194.8 198.202 193.8 196.922 192.52C195.682 191.24 194.722 189.72 194.042 187.96C193.402 186.2 193.082 184.28 193.082 182.2V154ZM234.961 183.4L236.761 178.6H255.361L257.161 183.4H234.961ZM245.941 163.48L238.861 180.16L238.381 181.24L232.141 196H226.441L245.941 151.9L265.441 196H259.741L253.621 181.6L253.141 180.4L245.941 163.48ZM302.35 154H307.45V198.1L275.65 164.74V196H270.55V151.9L302.35 185.26V154ZM312.873 158.8V154H339.573V158.8H328.773V196H323.673V158.8H312.873ZM344.964 154H350.064V196H344.964V154ZM362.671 175C362.671 178.16 363.351 180.98 364.711 183.46C366.111 185.94 368.011 187.9 370.411 189.34C372.811 190.78 375.531 191.5 378.571 191.5C381.651 191.5 384.371 190.78 386.731 189.34C389.131 187.9 391.011 185.94 392.371 183.46C393.771 180.98 394.471 178.16 394.471 175C394.471 171.84 393.771 169.02 392.371 166.54C391.011 164.06 389.131 162.1 386.731 160.66C384.371 159.22 381.651 158.5 378.571 158.5C375.531 158.5 372.811 159.22 370.411 160.66C368.011 162.1 366.111 164.06 364.711 166.54C363.351 169.02 362.671 171.84 362.671 175ZM357.271 175C357.271 171.92 357.791 169.08 358.831 166.48C359.911 163.84 361.411 161.56 363.331 159.64C365.251 157.68 367.511 156.16 370.111 155.08C372.711 153.96 375.531 153.4 378.571 153.4C381.651 153.4 384.471 153.96 387.031 155.08C389.631 156.16 391.891 157.68 393.811 159.64C395.731 161.56 397.211 163.84 398.251 166.48C399.331 169.08 399.871 171.92 399.871 175C399.871 178.04 399.331 180.88 398.251 183.52C397.211 186.16 395.731 188.46 393.811 190.42C391.891 192.34 389.631 193.86 387.031 194.98C384.471 196.06 381.651 196.6 378.571 196.6C375.531 196.6 372.711 196.06 370.111 194.98C367.511 193.86 365.251 192.34 363.331 190.42C361.411 188.46 359.911 186.16 358.831 183.52C357.791 180.88 357.271 178.04 357.271 175ZM377.611 178H384.211L402.211 196H395.611L377.611 178ZM406.773 154H411.873V182.2C411.873 185.08 412.653 187.4 414.213 189.16C415.773 190.92 418.053 191.8 421.053 191.8C424.053 191.8 426.333 190.92 427.893 189.16C429.453 187.4 430.233 185.08 430.233 182.2V154H435.333V182.2C435.333 184.28 434.993 186.2 434.313 187.96C433.673 189.72 432.713 191.24 431.433 192.52C430.193 193.8 428.693 194.8 426.933 195.52C425.173 196.24 423.213 196.6 421.053 196.6C418.893 196.6 416.933 196.24 415.173 195.52C413.413 194.8 411.893 193.8 410.613 192.52C409.373 191.24 408.413 189.72 407.733 187.96C407.093 186.2 406.773 184.28 406.773 182.2V154ZM447.452 196V191.2H468.632V196H447.452ZM447.452 158.8V154H468.632V158.8H447.452ZM447.452 175.6V170.8H467.432V175.6H447.452ZM444.632 154H449.732V196H444.632V154Z" fill="#E7B846"/>
<path d="M9.16133 175C9.16133 178.16 9.84133 180.98 11.2013 183.46C12.6013 185.94 14.5013 187.9 16.9013 189.34C19.3013 190.78 22.0213 191.5 25.0613 191.5C28.1413 191.5 30.8613 190.78 33.2213 189.34C35.6213 187.9 37.5013 185.94 38.8613 183.46C40.2613 180.98 40.9613 178.16 40.9613 175C40.9613 171.84 40.2613 169.02 38.8613 166.54C37.5013 164.06 35.6213 162.1 33.2213 160.66C30.8613 159.22 28.1413 158.5 25.0613 158.5C22.0213 158.5 19.3013 159.22 16.9013 160.66C14.5013 162.1 12.6013 164.06 11.2013 166.54C9.84133 169.02 9.16133 171.84 9.16133 175ZM3.76133 175C3.76133 171.92 4.28133 169.08 5.32133 166.48C6.40133 163.84 7.90133 161.56 9.82133 159.64C11.7413 157.68 14.0013 156.16 16.6013 155.08C19.2013 153.96 22.0213 153.4 25.0613 153.4C28.1413 153.4 30.9613 153.96 33.5213 155.08C36.1213 156.16 38.3813 157.68 40.3013 159.64C42.2213 161.56 43.7013 163.84 44.7413 166.48C45.8213 169.08 46.3613 171.92 46.3613 175C46.3613 178.04 45.8213 180.88 44.7413 183.52C43.7013 186.16 42.2213 188.46 40.3013 190.42C38.3813 192.34 36.1213 193.86 33.5213 194.98C30.9613 196.06 28.1413 196.6 25.0613 196.6C22.0213 196.6 19.2013 196.06 16.6013 194.98C14.0013 193.86 11.7413 192.34 9.82133 190.42C7.90133 188.46 6.40133 186.16 5.32133 183.52C4.28133 180.88 3.76133 178.04 3.76133 175ZM24.1013 178H30.7013L48.7013 196H42.1013L24.1013 178ZM53.2637 154H58.3637V182.2C58.3637 185.08 59.1437 187.4 60.7037 189.16C62.2637 190.92 64.5437 191.8 67.5437 191.8C70.5437 191.8 72.8237 190.92 74.3837 189.16C75.9437 187.4 76.7237 185.08 76.7237 182.2V154H81.8237V182.2C81.8237 184.28 81.4837 186.2 80.8037 187.96C80.1637 189.72 79.2037 191.24 77.9237 192.52C76.6837 193.8 75.1837 194.8 73.4237 195.52C71.6637 196.24 69.7037 196.6 67.5437 196.6C65.3837 196.6 63.4237 196.24 61.6637 195.52C59.9037 194.8 58.3837 193.8 57.1037 192.52C55.8637 191.24 54.9037 189.72 54.2237 187.96C53.5837 186.2 53.2637 184.28 53.2637 182.2V154ZM95.1423 183.4L96.9423 178.6H115.542L117.342 183.4H95.1423ZM106.122 163.48L99.0423 180.16L98.5623 181.24L92.3223 196H86.6223L106.122 151.9L125.622 196H119.922L113.802 181.6L113.322 180.4L106.122 163.48ZM130.732 154H135.832V196H130.732V154Z" fill="white"/>
<line x1="2.5" y1="206.5" x2="475.5" y2="206.5" stroke="#E7B846" stroke-width="3" stroke-linecap="round"/>
<path d="M167.695 43.8978C167.695 37.8989 167.571 30.3878 161.123 25.6858C153.324 19.9984 140.587 18.9572 129.584 18.6773C107.769 18.1224 87.2549 26.5114 70.627 34.9453C43.4617 48.7238 23.7521 65.7852 11.3592 86.9467C4.97769 97.8435 1.672 109.251 2.02571 120.941C2.28005 129.347 4.61232 140.667 14.587 146.75C21.8403 151.172 32.0482 148.744 39.3597 145.752C56.6093 138.693 69.9877 127.485 82.605 117.257C126.112 81.9898 158.404 42.4111 189.396 2" stroke="white" stroke-width="3" stroke-linecap="round"/>
<path d="M174.566 25.3472C155.155 45.7059 135.536 66.4236 120.226 88.4129C117.442 92.4113 114.802 96.5007 112.528 100.651C112.088 101.455 109.085 105.773 110.54 106.897C112.512 108.422 133.052 90.4161 134.4 89.2522C158.151 68.7438 181.667 48.1351 205.101 27.4553C206.455 26.261 207.841 25.0755 209.163 23.8638C210.98 22.1989 205.385 27.118 203.425 28.7045C190.925 38.8223 178.596 48.9875 166.839 59.5249C141.676 82.0788 115.958 106.163 99.4618 132.389C98.9879 133.143 91.4952 144.952 98.7233 143.164C102.253 142.29 105.445 139.448 107.813 137.679C116.487 131.198 124.681 124.397 132.98 117.691C144.436 108.435 155.462 98.9453 166.697 89.5645C177.758 80.3298 145.274 108.488 136.275 118.726C134.458 120.793 121.783 135.76 128.606 137.405C134.197 138.753 142.257 130.997 145.422 128.641" stroke="white" stroke-width="3" stroke-linecap="round"/>
<path d="M189.571 73.5946C189.497 74.2699 189.325 73.7785 189.046 73.5946" stroke="white" stroke-width="3" stroke-linecap="round"/>
<path d="M191.77 95.9025C187.731 93.4136 178.537 99.9298 176.465 101.083C165.689 107.084 158.793 113.266 154.136 122.099C151.898 126.344 150.01 132.5 159.19 131.913C170.175 131.211 179.737 125.651 187.744 120.965C208.994 108.53 228.588 94.2678 244.31 78.3858C244.394 78.3005 254.819 66.3431 248.365 66.3431C241.895 66.3431 234.384 73.5011 230.633 76.2157C219.44 84.3147 211.115 93.8281 202.278 103.136C195.416 110.364 187.745 117.517 181.891 125.169C178.144 130.066 182.016 125.276 183.69 123.448C186.17 120.74 189.22 118.239 192.227 115.804C200.197 109.352 209.348 100.996 220.724 97.2318C224.824 95.8754 226.135 97.5261 224.665 99.8906C222.199 103.856 218.002 107.506 214.699 111.151C211.599 114.572 199.95 124.022 203.306 128.551C206.275 132.556 216.856 124.985 219.011 123.702" stroke="white" stroke-width="3" stroke-linecap="round"/>
<path d="M239.565 110.549C243.571 107.877 247.378 105.137 250.901 102.156C252.467 100.831 256.646 97.101 254.262 97.5884C246.263 99.2232 238.584 104.854 232.587 108.519C226.007 112.539 220.386 116.753 215.669 121.889C214.903 122.723 206.336 132.063 213.248 131.59C221.15 131.048 229.752 124.266 235.122 120.893C245.301 114.501 254.296 107.272 263.547 100.262C266.662 97.9021 276.351 91.2664 272.319 92.8454C266.581 95.0925 261.32 99.6964 257.11 103.054C251.23 107.743 245.693 112.858 241.844 118.473C240.791 120.008 235.718 126.721 238.939 128.31C245.135 131.368 267.935 110.218 270.838 107.738C275.861 103.448 280.611 98.964 286.275 95.051C287.22 94.398 291.914 91.1889 291.715 94.1921C291.375 99.3213 285.31 104.986 281.49 109.143C276.669 114.39 271.314 119.412 266.196 124.524C258.444 132.264 280.596 108.478 289.351 101.258C294.901 96.6811 301.123 91.9495 308.32 88.5318C314.157 85.7602 310.857 91.5202 309.659 93.0406C305.579 98.2178 300.315 102.955 295.76 107.933C292.365 111.643 283.346 119.703 285.25 124.641C286.823 128.723 296.722 121.716 297.839 120.893C310.6 111.495 320.568 99.8154 330.821 89.1369C339.412 80.1886 347.484 70.982 354.546 61.4206C356.416 58.8893 361.265 51.5297 354.347 57.3413C344.501 65.6122 335.241 74.3175 326.093 82.9495C319.417 89.2483 313.148 95.7175 306.981 102.253C302.437 107.07 297.732 112.166 293.111 116.951C292.206 117.887 286.051 124.607 283.313 126.046C280.361 127.598 281.375 120.915 282.231 118.434C283.998 113.31 287.255 108.603 290.861 103.99C296.777 96.4225 302.96 87.44 312.478 81.6223C316.47 79.1823 321.256 77.4654 326.007 75.8448C336.895 72.1309 348.138 68.8369 359.302 65.539C378.904 59.749 398.975 54.8133 419 49.7681" stroke="white" stroke-width="3" stroke-linecap="round"/>
<path d="M337.098 121.938C339.399 121.938 346.691 122.126 347.599 123.32" stroke="white" stroke-width="3" stroke-linecap="round"/>
</svg>
