<svg width="421" height="151" viewBox="0 0 421 151" fill="none" xmlns="http://www.w3.org/2000/svg">
<path d="M167.695 43.8978C167.695 37.8989 167.571 30.3878 161.123 25.6858C153.324 19.9984 140.587 18.9572 129.584 18.6773C107.769 18.1224 87.2549 26.5114 70.627 34.9453C43.4617 48.7238 23.7521 65.7852 11.3592 86.9467C4.97769 97.8435 1.672 109.251 2.02571 120.941C2.28005 129.347 4.61232 140.667 14.587 146.75C21.8403 151.172 32.0482 148.744 39.3597 145.752C56.6093 138.693 69.9877 127.485 82.605 117.257C126.112 81.9898 158.404 42.4111 189.396 2" stroke="#E7B846" stroke-width="3" stroke-linecap="round"/>
<path d="M174.566 25.3472C155.155 45.7059 135.536 66.4236 120.226 88.4129C117.442 92.4113 114.802 96.5007 112.528 100.651C112.088 101.455 109.085 105.773 110.54 106.897C112.512 108.422 133.052 90.4161 134.4 89.2522C158.151 68.7438 181.667 48.1351 205.101 27.4553C206.455 26.261 207.841 25.0755 209.163 23.8638C210.98 22.1989 205.385 27.118 203.425 28.7045C190.925 38.8223 178.596 48.9875 166.839 59.5249C141.676 82.0788 115.958 106.163 99.4618 132.389C98.9879 133.143 91.4952 144.952 98.7233 143.164C102.253 142.29 105.445 139.448 107.813 137.679C116.487 131.198 124.681 124.397 132.98 117.691C144.436 108.435 155.462 98.9453 166.697 89.5645C177.758 80.3298 145.274 108.488 136.275 118.726C134.458 120.793 121.783 135.76 128.606 137.405C134.197 138.753 142.257 130.997 145.422 128.641" stroke="#E7B846" stroke-width="3" stroke-linecap="round"/>
<path d="M189.571 73.5946C189.497 74.2699 189.325 73.7785 189.046 73.5946" stroke="#E7B846" stroke-width="3" stroke-linecap="round"/>
<path d="M191.77 95.9025C187.731 93.4136 178.537 99.9298 176.465 101.083C165.689 107.084 158.793 113.266 154.136 122.099C151.898 126.344 150.01 132.5 159.19 131.913C170.175 131.211 179.737 125.651 187.744 120.965C208.994 108.53 228.588 94.2678 244.31 78.3858C244.394 78.3005 254.819 66.3431 248.365 66.3431C241.895 66.3431 234.384 73.5011 230.633 76.2157C219.44 84.3147 211.115 93.8281 202.278 103.136C195.416 110.364 187.745 117.517 181.891 125.169C178.144 130.066 182.016 125.276 183.69 123.448C186.17 120.74 189.22 118.239 192.227 115.804C200.197 109.352 209.348 100.996 220.724 97.2318C224.824 95.8754 226.135 97.5261 224.665 99.8906C222.199 103.856 218.002 107.506 214.699 111.151C211.599 114.572 199.95 124.022 203.306 128.551C206.275 132.556 216.856 124.985 219.011 123.702" stroke="#E7B846" stroke-width="3" stroke-linecap="round"/>
<path d="M239.565 110.549C243.571 107.877 247.378 105.137 250.901 102.156C252.467 100.831 256.646 97.101 254.262 97.5884C246.263 99.2232 238.584 104.854 232.587 108.519C226.007 112.539 220.386 116.753 215.669 121.889C214.903 122.723 206.336 132.063 213.248 131.59C221.15 131.048 229.752 124.266 235.122 120.893C245.301 114.501 254.296 107.272 263.547 100.262C266.662 97.9021 276.351 91.2664 272.319 92.8454C266.581 95.0925 261.32 99.6964 257.11 103.054C251.23 107.743 245.693 112.858 241.844 118.473C240.791 120.008 235.718 126.721 238.939 128.31C245.135 131.368 267.935 110.218 270.838 107.738C275.861 103.448 280.611 98.964 286.275 95.051C287.22 94.398 291.914 91.1889 291.715 94.1921C291.375 99.3213 285.31 104.986 281.49 109.143C276.669 114.39 271.314 119.412 266.196 124.524C258.444 132.264 280.596 108.478 289.351 101.258C294.901 96.6811 301.123 91.9495 308.32 88.5318C314.157 85.7602 310.857 91.5202 309.659 93.0406C305.579 98.2178 300.315 102.955 295.76 107.933C292.365 111.643 283.346 119.703 285.25 124.641C286.823 128.723 296.722 121.716 297.839 120.893C310.6 111.495 320.568 99.8154 330.821 89.1369C339.412 80.1886 347.484 70.982 354.546 61.4206C356.416 58.8893 361.265 51.5297 354.347 57.3413C344.501 65.6122 335.241 74.3175 326.093 82.9495C319.417 89.2483 313.148 95.7175 306.981 102.253C302.437 107.07 297.732 112.166 293.111 116.951C292.206 117.887 286.051 124.607 283.313 126.046C280.361 127.598 281.375 120.915 282.231 118.434C283.998 113.31 287.255 108.603 290.861 103.99C296.777 96.4225 302.96 87.44 312.478 81.6223C316.47 79.1823 321.256 77.4654 326.007 75.8448C336.895 72.1309 348.138 68.8369 359.302 65.539C378.904 59.749 398.975 54.8133 419 49.7681" stroke="#E7B846" stroke-width="3" stroke-linecap="round"/>
<path d="M337.098 121.938C339.399 121.938 346.691 122.126 347.599 123.32" stroke="#E7B846" stroke-width="3" stroke-linecap="round"/>
</svg>
